<svg xmlns="http://www.w3.org/2000/svg" width="218.109" height="39.969" viewBox="0 0 218.109 39.969">
  <g id="brand" transform="translate(-226.891 -37)">
    <text id="SoryaEnergy" transform="translate(284 62)" fill="#fff" font-size="28" font-family="ChangaOne, Changa One"><tspan x="0" y="0">SoryaEnergy</tspan></text>
    <g id="logo-icon" transform="translate(153.268 -34.079)">
      <path id="Path_2831" data-name="Path 2831" d="M486.375,76.446l.074-.148-.222-4.52a.41.41,0,0,0-.667-.3l-3.334,3.112v.222a13.482,13.482,0,0,1,4.149,1.63Z" transform="translate(-369.677)" fill="#fff"/>
      <path id="Path_2832" data-name="Path 2832" d="M572.45,169.627a13.792,13.792,0,0,1,1.778,4.149l.148-.074,3.038-3.334a.4.4,0,0,0-.3-.667l-4.52-.148Z" transform="translate(-451.307 -88.81)" fill="#fff"/>
      <path id="Path_2833" data-name="Path 2833" d="M574.923,279.22a13.619,13.619,0,0,1-1.7,4.149l.148.074,4.52-.222a.41.41,0,0,0,.3-.667l-3.111-3.26Z" transform="translate(-452.002 -188.03)" fill="#fff"/>
      <path id="Path_2834" data-name="Path 2834" d="M484.55,370.445l.074.148,3.334,3.038a.4.4,0,0,0,.667-.3l.148-4.52-.074-.148a11.37,11.37,0,0,1-4.149,1.778Z" transform="translate(-371.78 -268.955)" fill="#fff"/>
      <path id="Path_2835" data-name="Path 2835" d="M422.3,150.092a10.117,10.117,0,0,0-9.262-8.965,9.574,9.574,0,0,0-4.149.519,1,1,0,0,0-.667,1.112l2.741,17.783a.964.964,0,0,0,.963.815h.3A10.131,10.131,0,0,0,422.3,150.092Z" transform="translate(-302.715 -63.051)" fill="#fff"/>
      <path id="Path_2836" data-name="Path 2836" d="M106.25,102.084l-4-26.378a1.114,1.114,0,0,0-1.038-1.038H79.132a1.114,1.114,0,0,0-1.038,1.038l-4.446,26.378a1.17,1.17,0,0,0,1.038,1.482h10.67a1.169,1.169,0,0,1,1.038,1.26v3.334a1.169,1.169,0,0,1-1.038,1.26h-1.7a1.169,1.169,0,0,0-1.038,1.26v2.075a1.169,1.169,0,0,0,1.038,1.26h12.6a1.169,1.169,0,0,0,1.038-1.26v-2.075a1.169,1.169,0,0,0-1.038-1.26h-1.7a1.169,1.169,0,0,1-1.038-1.26v-3.334a1.169,1.169,0,0,1,1.038-1.26h10.67a1.169,1.169,0,0,0,1.037-1.482ZM86.837,84.227l.445-4.52a.584.584,0,0,1,.593-.593H92.1c.3,0,.519.3.593.593l.445,4.52a.6.6,0,0,1-.593.741H87.43A.673.673,0,0,1,86.837,84.227Zm-.667,6.891.371-3.63a.584.584,0,0,1,.593-.593h5.705c.3,0,.519.3.593.593l.371,3.63a.6.6,0,0,1-.593.741H86.763a.6.6,0,0,1-.593-.741Zm-1.927,3.408-.371,4a.584.584,0,0,1-.593.593H78.612a.66.66,0,0,1-.593-.815l.667-4a.629.629,0,0,1,.593-.519h4.372a.673.673,0,0,1,.592.741Zm.667-6.891-.37,3.631a.584.584,0,0,1-.593.593H79.872a.66.66,0,0,1-.593-.815l.593-3.63c.074-.3.3-.593.593-.593h3.853a.659.659,0,0,1,.592.815Zm.371-3.26a.584.584,0,0,1-.593.593h-3.63a.66.66,0,0,1-.593-.815l.741-4.52a.629.629,0,0,1,.593-.519h3.334a.673.673,0,0,1,.593.741Zm8.6,14.745H86.022a.673.673,0,0,1-.593-.741l.371-4a.584.584,0,0,1,.593-.593h7.113c.3,0,.519.3.593.593l.371,4a.628.628,0,0,1-.593.741Zm.815-14.745-.445-4.52a.6.6,0,0,1,.593-.741H98.47c.3,0,.519.222.593.593l.667,4.52a.66.66,0,0,1-.593.815H95.284a.712.712,0,0,1-.593-.667Zm.667,6.891-.371-3.63a.6.6,0,0,1,.593-.741h4.075c.3,0,.519.222.593.593l.593,3.63a.66.66,0,0,1-.593.815H96.025a.787.787,0,0,1-.667-.667Zm5.928,7.854H96.617c-.3,0-.519-.3-.593-.593l-.371-4a.6.6,0,0,1,.593-.741h4.446c.3,0,.519.222.593.593l.593,4A.627.627,0,0,1,101.285,99.12Z" transform="translate(0 -2.965)" fill="#fff"/>
    </g>
  </g>
</svg>
