<svg xmlns="http://www.w3.org/2000/svg" width="70.667" height="53.674" viewBox="0 0 70.667 53.674">
  <path id="qotes-icon" d="M41.329,66.413q-4.768-4.953-4.766-13.706,0-19.059,25.671-35.006l1.75,2.718Q45.9,32.282,45.9,44.145c0,.095.015.173.015.264A14.908,14.908,0,0,1,67.138,65.237c-.177.233-.411.446-.6.669-.093.1-.179.2-.274.293a14.087,14.087,0,0,1-1.11,1.186q-4.471,3.99-11.766,3.989A15.987,15.987,0,0,1,41.33,66.413Zm-36.56,0Q0,61.457.005,52.7q0-19.053,25.669-35l1.752,2.719C15.617,28.168,9.632,35.913,9.386,43.655A14.855,14.855,0,0,1,33.057,57.641c0,.045.007.076.007.119a12.444,12.444,0,0,1-4.473,9.624q-4.473,3.988-11.766,3.986A16.008,16.008,0,0,1,4.769,66.411Z" transform="translate(-0.005 -17.7)" fill="#f2f3f8"/>
</svg>
