<svg xmlns="http://www.w3.org/2000/svg" width="29.578" height="38.566" viewBox="0 0 29.578 38.566">
  <path id="features-icon02" d="M191.4,56.944l-2.434-.609a11.83,11.83,0,0,0-.944-2.316l1.308-2.18a1.253,1.253,0,0,0-.189-1.533l-2.168-2.168a1.251,1.251,0,0,0-1.533-.188l-2.151,1.29c-.28-.154-.568-.294-.86-.425h0a8.284,8.284,0,0,0,1.42-1.244c1.068-1.363,1.282-5.987-1.572-9.455h0a.692.692,0,0,0-1.222.376,19.425,19.425,0,0,1-1.5,5.9l-3.688-1.168,1.994-6.47a.692.692,0,0,0-.951-.831c-5.24,2.428-7.142,8.042-6,10.486a8.561,8.561,0,0,0,1.94,2.327q-.467.2-.916.441l-2.181-1.307a1.252,1.252,0,0,0-1.533.189l-2.17,2.169a1.254,1.254,0,0,0-.188,1.533l1.29,2.151a11.8,11.8,0,0,0-.968,2.3l-2.467.618a1.253,1.253,0,0,0-.951,1.218v3.066a1.253,1.253,0,0,0,.951,1.218l2.434.609a11.825,11.825,0,0,0,.944,2.315L165.8,67.444a1.253,1.253,0,0,0,.189,1.533l2.168,2.169h0a1.252,1.252,0,0,0,1.533.188l2.151-1.29h0a11.783,11.783,0,0,0,2.3.967l.618,2.467h0a1.253,1.253,0,0,0,1.217.951h3.067a1.254,1.254,0,0,0,1.218-.951l.608-2.433a11.8,11.8,0,0,0,2.314-.945l2.182,1.309h0a1.254,1.254,0,0,0,1.533-.19l2.168-2.168h0a1.253,1.253,0,0,0,.189-1.533l-1.29-2.151h0a11.829,11.829,0,0,0,.968-2.305l2.468-.618h0a1.253,1.253,0,0,0,.951-1.217V58.161a1.254,1.254,0,0,0-.951-1.218ZM172.17,45.825c-.962-2.05,1.256-6.051,3.864-7.819l-1.686,5.469h0a.691.691,0,0,0,.452.862L179.73,45.9h0a.689.689,0,0,0,.835-.367,20.81,20.81,0,0,0,1.616-5.072c1.421,2.727,1.074,5.627.581,6.257-.657.839-3.52,2.026-3.52,5.724V65.48a6.047,6.047,0,0,1-3.888-.181V51.47c0-3.291-2.457-4.1-3.183-5.644Zm8.453,8.574a6.059,6.059,0,0,1,0,10.485Zm-6.653,10.134a6.148,6.148,0,0,1-.7-.6,6.027,6.027,0,0,1,.7-9.185Zm17-3.405-2.761.691a.69.69,0,0,0-.5.495,10.422,10.422,0,0,1-1.136,2.706.691.691,0,0,0,0,.711l1.447,2.414-2.028,2.028-2.44-1.463a.692.692,0,0,0-.7,0,10.451,10.451,0,0,1-2.718,1.108.69.69,0,0,0-.5.5l-.683,2.731h-2.868l-.691-2.761a.692.692,0,0,0-.5-.5,10.4,10.4,0,0,1-2.706-1.136.691.691,0,0,0-.71,0L169.06,70.1l-2.028-2.028,1.463-2.44a.692.692,0,0,0,0-.7,10.431,10.431,0,0,1-1.108-2.719.69.69,0,0,0-.5-.5l-2.732-.683V58.155l2.761-.691h0a.69.69,0,0,0,.5-.495,10.421,10.421,0,0,1,1.136-2.706.691.691,0,0,0,0-.711l-1.448-2.414,2.028-2.027,2.44,1.463a.69.69,0,0,0,.7,0,10.377,10.377,0,0,1,1.383-.662c.378.8.309,1.488.309,3.195h0a7.49,7.49,0,1,0,6.653-.262,4.655,4.655,0,0,1,.786-2.954,10.541,10.541,0,0,1,1.534.738.69.69,0,0,0,.71,0l2.414-1.447,2.028,2.027-1.463,2.439a.691.691,0,0,0,0,.7,10.424,10.424,0,0,1,1.109,2.72.689.689,0,0,0,.5.5l2.732.683Z" transform="translate(-162.775 -35.863)" fill="#fff"/>
</svg>
