<svg xmlns="http://www.w3.org/2000/svg" width="33.811" height="32.815" viewBox="0 0 33.811 32.815">
  <path id="features-icon01" d="M72.62,19.966a6.464,6.464,0,1,1,9.75-6.052H94.322a.994.994,0,0,1,.879,1.46l-1.376,2.6v13.84a.994.994,0,0,1-1.989,0V21.729L86.251,32.278a.994.994,0,0,1-.879.529h-17.9a.994.994,0,0,1-.879-1.46Zm5.455,10.852h6.7L92.67,15.9h-6.7Zm-8.95,0h6.7l7.9-14.916h-6.7Zm6.419-16.376a1,1,0,0,1,.879-.529h3.95a4.475,4.475,0,1,0-6.821,4.292ZM76.92,4.964a.994.994,0,0,1-1.989,0V.986a.994.994,0,0,1,1.989,0Zm6.388,3.47A.994.994,0,0,1,81.9,7.028l2.812-2.812a.994.994,0,0,1,1.406,1.406ZM68.543,20.387a.994.994,0,0,1,1.406,1.406l-2.813,2.812A.994.994,0,1,1,65.73,23.2Zm-2.064-6.971a.994.994,0,0,1,0,1.989H62.5a.994.994,0,0,1,0-1.989Zm3.47-6.388a.994.994,0,1,1-1.406,1.406L65.73,5.622a.994.994,0,0,1,1.406-1.406Z" transform="translate(-61.507 0.008)" fill="#fff"/>
</svg>
