<svg xmlns="http://www.w3.org/2000/svg" width="40.012" height="37.882" viewBox="0 0 40.012 37.882">
  <g id="features-icon03" transform="translate(885.632 -4347)">
    <path id="Path_2814" data-name="Path 2814" d="M151.347,289.994a1.777,1.777,0,0,0,.828.222,1.252,1.252,0,0,0,.976-.442,1.525,1.525,0,0,0,.287-1.3l-.317-1.844,1.345-1.307a1.367,1.367,0,0,0-.8-2.457l-1.861-.269-.832-1.68a1.37,1.37,0,0,0-2.585,0l-.832,1.68-1.861.269a1.367,1.367,0,0,0-.8,2.457l1.345,1.307-.317,1.843a1.524,1.524,0,0,0,.287,1.3,1.421,1.421,0,0,0,1.8.221l1.666-.873Zm-3.654-1.753.379-2.206-1.6-1.559,2.219-.321,1-2.011,1,2.011,2.218.321-1.6,1.56.38,2.206-1.989-1.042Z" transform="translate(-1029.992 4086.153)" fill="#fff"/>
    <path id="Path_2816" data-name="Path 2816" d="M455.548,282.865l-1.861-.269-.831-1.679a1.37,1.37,0,0,0-2.586,0l-.832,1.68-1.861.269a1.367,1.367,0,0,0-.8,2.457l1.345,1.307-.317,1.844a1.525,1.525,0,0,0,.287,1.3,1.423,1.423,0,0,0,1.8.22l1.665-.872,1.666.873a1.781,1.781,0,0,0,.827.222,1.25,1.25,0,0,0,.976-.443,1.523,1.523,0,0,0,.287-1.3L455,286.629l1.345-1.307a1.367,1.367,0,0,0-.8-2.457Zm-2.376,3.168.379,2.206-1.988-1.042-1.989,1.042.38-2.206-1.6-1.56,2.218-.321,1-2.011,1,2.011,2.219.321Z" transform="translate(-1302.503 4086.154)" fill="#fff"/>
    <path id="Path_2818" data-name="Path 2818" d="M282.861,97.6a7.236,7.236,0,1,0-7.236-7.237A7.236,7.236,0,0,0,282.861,97.6Zm0-12.769a5.533,5.533,0,1,1-5.533,5.532A5.539,5.539,0,0,1,282.861,84.833Z" transform="translate(-1148.487 4263.87)" fill="#fff"/>
    <path id="Path_2819" data-name="Path 2819" d="M283.661,324.91l2.237-2.282a1.876,1.876,0,0,0,.592-1.9,1.829,1.829,0,0,0-1.57-1.145l-3.062-.465-1.376-2.919a1.637,1.637,0,0,0-3.154,0l-1.377,2.918-3.063.465a1.827,1.827,0,0,0-1.57,1.145,1.873,1.873,0,0,0,.591,1.9l2.238,2.284-.529,3.231a1.973,1.973,0,0,0,.352,1.672,1.707,1.707,0,0,0,2.2.206l2.73-1.5,2.73,1.5a2.228,2.228,0,0,0,1.069.3,1.458,1.458,0,0,0,1.133-.511,1.969,1.969,0,0,0,.354-1.671Zm-1.151,3.509c.009.056.014.1.017.146-.022-.01-.046-.022-.072-.037l-3.55-1.952-3.551,1.952-.071.037a1.288,1.288,0,0,1,.017-.146l.669-4.084-2.843-2.9a1.227,1.227,0,0,1-.118-.139,1.1,1.1,0,0,1,.138-.029l3.96-.6,1.764-3.74c.013-.027.025-.051.037-.073.012.022.024.047.037.074l1.763,3.739,3.959.6a1.07,1.07,0,0,1,.138.029,1.169,1.169,0,0,1-.119.14l-2.841,2.9Z" transform="translate(-1144.531 4054.557)" fill="#fff"/>
    <path id="Path_2820" data-name="Path 2820" d="M221.288,228.608a10.2,10.2,0,0,1,1.6-2.184,10.562,10.562,0,0,1,5.32-2.839,8.994,8.994,0,0,1-1.663-1.306,11.477,11.477,0,0,0-6.291,4.752,3.594,3.594,0,0,1,.757,1.026Z" transform="translate(-1098.506 4138.258)" fill="#fff"/>
    <path id="Path_2821" data-name="Path 2821" d="M194.778,394.742a.5.5,0,0,1-.5-.41c0-.092,0-.18,0-.271-.067-.03-.135-.057-.2-.092l-.875-.459-.632.331c0,.179.006.359.011.536a2.192,2.192,0,0,0,2.206,2.067h6.51l.014-.087-1.584-1.615Z" transform="translate(-1073.504 3983.686)" fill="#fff"/>
    <path id="Path_2822" data-name="Path 2822" d="M397,224.4a10.828,10.828,0,0,1,5.239,2.864,10.642,10.642,0,0,1,1.688,2.287l.366-.738a3.631,3.631,0,0,1,.63-.9,11.848,11.848,0,0,0-6.252-4.8A8.98,8.98,0,0,1,397,224.4Z" transform="translate(-1258.053 4137.498)" fill="#fff"/>
    <path id="Path_2823" data-name="Path 2823" d="M424.824,393.968c-.064.034-.131.054-.2.084,0,.1,0,.193,0,.292a.492.492,0,0,1-.5.4h-4.958l-1.583,1.615.014.087h6.527a2.181,2.181,0,0,0,2.2-2.067c0-.177.005-.355.006-.534l-.636-.334Z" transform="translate(-1276.64 3983.687)" fill="#fff"/>
  </g>
</svg>
