<svg xmlns="http://www.w3.org/2000/svg" width="40.251" height="40.251" viewBox="0 0 40.251 40.251">
  <g id="features-icon04" transform="translate(2101.353 -4211)">
    <path id="Path_2824" data-name="Path 2824" d="M106.91,57a19.968,19.968,0,1,0-7.694-1.52A20.1,20.1,0,0,0,106.91,57ZM93.647,23.642a18.757,18.757,0,1,1-5.494,13.263,18.759,18.759,0,0,1,5.494-13.263Z" transform="translate(-2188.109 4194.249)" fill="#fff"/>
    <path id="Path_2825" data-name="Path 2825" d="M226.5,457.527a17.44,17.44,0,0,0,1.791,1.015l.59-1.2h0a16.11,16.11,0,0,1-1.653-.936Z" transform="translate(-2317.155 3788.256)" fill="#fff"/>
    <path id="Path_2826" data-name="Path 2826" d="M282.773,296.077a16.051,16.051,0,0,1-5.145-.841l-.429,1.27h0A17.43,17.43,0,0,0,300.19,280h-1.34a16.1,16.1,0,0,1-16.077,16.077Z" transform="translate(-2363.972 3951.154)" fill="#fff"/>
    <path id="Path_2827" data-name="Path 2827" d="M175.67,243.575h4.019a.67.67,0,0,0,.67-.67h2.481a8.656,8.656,0,0,0,4.623,1.34h.778a2,2,0,0,0,1.5.67h2.68a2.008,2.008,0,0,0,1.75-3,2.006,2.006,0,0,0,.416-3.033,2,2,0,0,0,0-2.68,2.008,2.008,0,0,0-1.5-3.35h-2.01V229.6a2.1,2.1,0,0,0-4.188-.3l-.145,1.013a4.518,4.518,0,0,1-4.472,3.879h-1.912v-.67a.67.67,0,0,0-.67-.67H175.67a.67.67,0,0,0-.67.67V242.9a.67.67,0,0,0,.67.67Zm18.087-6.029a.67.67,0,0,1-.67.67h-2.68a.67.67,0,1,1,0-1.34h2.68A.67.67,0,0,1,193.757,237.546Zm0,2.68a.67.67,0,0,1-.67.67h-2.68a.67.67,0,1,1,0-1.34h2.68A.67.67,0,0,1,193.757,240.226Zm-1.34,3.349h-2.68a.67.67,0,0,1,0-1.34h2.68a.67.67,0,1,1,0,1.34Zm1.34-8.709a.67.67,0,0,1-.67.67h-2.68a.67.67,0,1,1,0-1.34h2.68A.67.67,0,0,1,193.757,234.866Zm-11.485.67a5.858,5.858,0,0,0,5.8-5.029l.145-1.014a.765.765,0,0,1,1.522.109v3.369a2.008,2.008,0,0,0-.826,3.234,2,2,0,0,0,0,2.68,2,2,0,0,0-.254,2.326,2.01,2.01,0,0,0-.93,1.693h-.265a7.313,7.313,0,0,1-4.053-1.227.669.669,0,0,0-.372-.113h-2.68v-6.029Zm-5.932-1.34h2.68v8.039h-2.68Z" transform="translate(-2269.597 3999.637)" fill="#fff"/>
    <path id="Path_2828" data-name="Path 2828" d="M290.745,82.1l1.612,1.171-.616,1.895a1,1,0,0,0,1.546,1.123l1.612-1.171,1.612,1.171a1,1,0,0,0,1.546-1.124l-.616-1.895,1.612-1.171a1,1,0,0,0-.591-1.818H296.47l-.615-1.895a1,1,0,0,0-1.912,0l-.616,1.895h-1.992a1,1,0,0,0-.591,1.818Zm2.826-.478a1,1,0,0,0,.955-.694l.372-1.146.372,1.146h0a1,1,0,0,0,.955.694h1.2l-.975.708a1,1,0,0,0-.365,1.123l.372,1.146-.974-.708h0a1,1,0,0,0-1.181,0l-.974.708.372-1.146h0a1,1,0,0,0-.365-1.123l-.975-.708Z" transform="translate(-2376.099 4137.969)" fill="#fff"/>
    <path id="Path_2829" data-name="Path 2829" d="M420.424,153.158l1.612,1.171-.615,1.895h0a1,1,0,0,0,1.546,1.124l1.612-1.171,1.612,1.171a1,1,0,0,0,1.546-1.123l-.615-1.895,1.612-1.171a1,1,0,0,0-.591-1.818h-1.992l-.615-1.895a1,1,0,0,0-1.911,0l-.615,1.895h-1.992a1,1,0,0,0-.591,1.818Zm2.826-.478h0a1,1,0,0,0,.956-.694l.372-1.146.372,1.145h0a1,1,0,0,0,.956.694h1.2l-.975.708h0a1,1,0,0,0-.365,1.124l.372,1.146-.975-.708h0a1,1,0,0,0-1.181,0l-.975.708.372-1.145h0a1,1,0,0,0-.365-1.124l-.975-.708Z" transform="translate(-2495.85 4072.354)" fill="#fff"/>
    <path id="Path_2830" data-name="Path 2830" d="M175.424,161.908l1.612,1.171-.615,1.895h0a1,1,0,0,0,1.546,1.124l1.612-1.171,1.612,1.171a1,1,0,0,0,1.546-1.123l-.615-1.895,1.612-1.171a1,1,0,0,0-.591-1.818h-1.992l-.615-1.895a1,1,0,0,0-1.911,0l-.615,1.895h-1.992a1,1,0,0,0-.591,1.818Zm2.826-.478h0a1,1,0,0,0,.956-.694l.372-1.146.372,1.145h0a1,1,0,0,0,.956.694h1.2l-.975.708h0a1,1,0,0,0-.365,1.124l.372,1.146-.975-.708h0a1,1,0,0,0-1.181,0l-.975.708.372-1.145h0a1,1,0,0,0-.365-1.124l-.975-.708Z" transform="translate(-2269.606 4064.274)" fill="#fff"/>
  </g>
</svg>
