<svg xmlns="http://www.w3.org/2000/svg" width="70" height="70.001" viewBox="0 0 70 70.001">
  <g id="reduce-electricity-icon" transform="translate(1056.146 -3118)">
    <path id="Path_2793" data-name="Path 2793" d="M295.551,195.938l-2.062,18.018a.979.979,0,0,0,.966,1.089l3.834.023-2.018,13.441a.979.979,0,0,0,1.651.846l19.688-19.2a.978.978,0,0,0-.68-1.679l-7.759-.021,5.107-12.021a.979.979,0,0,0-.9-1.361H296.523a.979.979,0,0,0-.972.867Zm16.348,1.089-5.106,12.017a.978.978,0,0,0,.9,1.361l6.839.018-15.891,15.5,1.754-11.681a.977.977,0,0,0-.962-1.123l-3.873-.023,1.838-16.069Z" transform="translate(-1324.77 2942.632)" fill="#9b9b9b"/>
    <path id="Path_2794" data-name="Path 2794" d="M319.957,73.769a.978.978,0,0,0,.979-.979V68.31a6.227,6.227,0,1,0-1.956,0v4.481a.978.978,0,0,0,.978.978ZM315.685,62.2a4.272,4.272,0,1,1,4.272,4.241A4.263,4.263,0,0,1,315.685,62.2Z" transform="translate(-1341.103 3062.004)" fill="#9b9b9b"/>
    <path id="Path_2795" data-name="Path 2795" d="M191.13,112.941a6.142,6.142,0,0,0-4.374-1.81h-.018a6.214,6.214,0,1,0-.042,12.427h.018a6.189,6.189,0,0,0,3.645-1.2l3.167,3.167a.978.978,0,1,0,1.384-1.383l-3.167-3.167a6.194,6.194,0,0,0-.613-8.037Zm-7.425,7.425a4.2,4.2,0,0,1-1.237-3,4.289,4.289,0,0,1,4.286-4.273,4.218,4.218,0,0,1,4.228,4.238,4.278,4.278,0,0,1-7.277,3.038Z" transform="translate(-1227.027 3016.501)" fill="#9b9b9b"/>
    <path id="Path_2796" data-name="Path 2796" d="M131.585,256.8a6.212,6.212,0,0,0,6.115-5.25h4.48a.979.979,0,1,0,0-1.957H137.7a6.2,6.2,0,1,0-6.115,7.207Zm0-10.5a4.271,4.271,0,1,1-4.242,4.271A4.262,4.262,0,0,1,131.585,246.3Z" transform="translate(-1181.531 2902.427)" fill="#9b9b9b"/>
    <path id="Path_2797" data-name="Path 2797" d="M194.914,365.106a.978.978,0,0,0-1.383,0l-3.167,3.167a6.185,6.185,0,0,0-3.645-1.2H186.7a6.214,6.214,0,0,0,.042,12.427h.018a6.188,6.188,0,0,0,4.986-9.847l3.167-3.167a.977.977,0,0,0,0-1.383Zm-5.162,11.2a4.278,4.278,0,0,1-7.277-3.038,4.218,4.218,0,0,1,4.228-4.238,4.289,4.289,0,0,1,4.287,4.273A4.2,4.2,0,0,1,189.751,376.311Z" transform="translate(-1227.031 2798.868)" fill="#9b9b9b"/>
    <path id="Path_2798" data-name="Path 2798" d="M326.188,413.834a6.213,6.213,0,0,0-5.25-6.114v-4.481a.979.979,0,1,0-1.957,0v4.481a6.2,6.2,0,1,0,7.207,6.114Zm-6.228,4.243a4.242,4.242,0,1,1,4.271-4.242A4.262,4.262,0,0,1,319.96,418.077Z" transform="translate(-1341.105 2767.968)" fill="#9b9b9b"/>
    <path id="Path_2799" data-name="Path 2799" d="M434.487,366.488l3.167,3.167a6.21,6.21,0,1,0,5.047-2.581h-.018a6.189,6.189,0,0,0-3.645,1.2L435.87,365.1a.978.978,0,1,0-1.383,1.384Zm8.214,2.545a4.212,4.212,0,0,1,2.991,1.234,4.262,4.262,0,1,1-2.991-1.234Z" transform="translate(-1444.66 2798.869)" fill="#9b9b9b"/>
    <path id="Path_2800" data-name="Path 2800" d="M489.415,250.576A6.194,6.194,0,0,0,477.1,249.6h-4.48a.979.979,0,0,0,0,1.957h4.48a6.194,6.194,0,0,0,12.315-.978Zm-6.2,4.271a4.271,4.271,0,1,1,4.242-4.271A4.262,4.262,0,0,1,483.216,254.847Z" transform="translate(-1475.56 2902.425)" fill="#9b9b9b"/>
    <path id="Path_2801" data-name="Path 2801" d="M434.486,125.534a.979.979,0,0,0,1.384,0l3.167-3.167a6.185,6.185,0,0,0,3.645,1.2h.018a6.2,6.2,0,0,0,4.354-10.6,6.22,6.22,0,0,0-8.787-.021,6.2,6.2,0,0,0-.613,8.037l-3.167,3.167a.978.978,0,0,0,0,1.384Zm5.163-11.2a4.211,4.211,0,0,1,2.991-1.234,4.235,4.235,0,1,1-2.991,1.234Z" transform="translate(-1444.659 3016.494)" fill="#9b9b9b"/>
  </g>
</svg>
