<svg xmlns="http://www.w3.org/2000/svg" width="43.917" height="70" viewBox="0 0 43.917 70">
  <path id="renewable-energy-icon" d="M231.352,39.2c-12.521,0-21.972,10.063-21.972,23.38,0,4.655,3.211,10.43,6.221,14.289a23.571,23.571,0,0,1,4.463,9.625l1.558,13.125h0a5.818,5.818,0,0,0,5.172,5.1v1.339A3.106,3.106,0,0,0,229.9,109.2h3.027a3.106,3.106,0,0,0,3.107-3.106v-1.365a5.82,5.82,0,0,0,5.171-5.1l1.523-13a23.822,23.822,0,0,1,4.559-10.1c2.905-3.754,6.011-9.389,6.011-13.948.026-13.317-9.424-23.38-21.945-23.38Zm-9.065,48.213H240.54l-.438,3.666H222.726Zm.682,5.766h16.888l-.438,3.719h-16Zm12.451,9.485h-8.006A3.771,3.771,0,0,1,223.661,99h15.5a3.771,3.771,0,0,1-3.745,3.666ZM245.65,75.24a25.88,25.88,0,0,0-4.76,10.071H230.057a12.39,12.39,0,0,1-.638-5.521c.333-2.153,1.47-2.844,3.351-3.99,8.234-4.6,11.305-14.053,3.6-21.875-3.168-3.386-1.934-6.379-1.89-6.492h0a1.05,1.05,0,0,0-1.243-1.443c-.184.052-4.655,1.417-8.522,9.389-3.7,7.166.044,14.875,4.926,18.725a1.05,1.05,0,0,0,1.514-.263,17.726,17.726,0,0,0,3.08-12.416,1.056,1.056,0,0,0-2.092.289,15.4,15.4,0,0,1-2.1,9.861c-4.121-3.885-6.274-9.861-3.439-15.356a19.519,19.519,0,0,1,5.5-7.289h0a9.03,9.03,0,0,0,2.747,6.387,13.763,13.763,0,0,1,3.78,6.816c.953,4.874-2.905,9.7-6.957,11.874-1.978,1.207-3.85,2.345-4.375,5.469a13.527,13.527,0,0,0,.552,5.836h-5.906a25.568,25.568,0,0,0-4.69-9.73c-2.625-3.421-5.775-8.873-5.775-13-.254-11.472,8.383-21.384,19.872-21.253a19.251,19.251,0,0,1,14,5.906,21.879,21.879,0,0,1,5.836,15.347c.035,4.034-2.966,9.345-5.539,12.661Z" transform="translate(-209.38 -39.198)" fill="#9b9b9b"/>
</svg>
